<svg xmlns="http://www.w3.org/2000/svg" xmlns:xlink="http://www.w3.org/1999/xlink" width="40" height="40" viewBox="0 0 40 40">
  <defs>
    <clipPath id="clip-pattern">
      <rect width="40" height="40"/>
    </clipPath>
  </defs>
  <g id="pattern" clip-path="url(#clip-pattern)">
    <rect width="40" height="40" fill="#fff"/>
    <path id="Combined-Shape" d="M40,1.41,37.17,4.24,35.76,2.83,38.59,0H40ZM40,38.6l-2.83-2.83-1.41,1.41L38.59,40H40V38.59ZM1.41,0,4.24,2.83,2.83,4.24,0,1.41V0ZM0,38.59l2.83-2.83,1.41,1.41L1.41,40H0ZM20,21.4l-2.83,2.83-1.41-1.41L18.59,20l-2.83-2.83,1.41-1.41L20,18.59l2.83-2.83,1.41,1.41L21.41,20l2.83,2.83-1.41,1.41L20,21.41Z" transform="translate(40) rotate(90)" fill-rule="evenodd" opacity="0.04"/>
  </g>
</svg>
